<?xml version="1.0" encoding="UTF-8"?>
<svg id="Ebene_1" data-name="Ebene 1" xmlns="http://www.w3.org/2000/svg" viewBox="0 0 148.99 50">
  <defs>
    <style>
      .cls-1 {
        fill: #fff;
      }

      .cls-1, .cls-2 {
        stroke-width: 0px;
      }

      .cls-2 {
        fill: #00addf;
      }
    </style>
  </defs>
  <g id="Wortmarke">
    <path id="API" class="cls-2" d="m137.26,12.54h-21.58v21.51h2.52v-8.78h19.13c4.15,0,6.19-1.63,6.19-5.24v-2.31c-.07-3.54-2.11-5.17-6.26-5.17Zm3.68,7.01c0,2.31-.95,3.13-3.61,3.13h-19.13v-7.62h19.13c2.65,0,3.61.88,3.61,3.33v1.16Zm-26.54,14.5h-3.06l-3.06-5.04h-20.62l-3.06,5.1h-3.06l11.77-19.67c.75-1.29,1.29-1.84,3.33-1.84h2.59c1.84,0,2.65.54,3.47,1.84l11.71,19.6Zm-13.75-17.76c-.54-.88-.82-1.09-2.25-1.09h-.95c-1.5,0-1.7.2-2.31,1.09l-6.19,10.21h17.97l-6.26-10.21Zm47.85,17.76h-2.52V12.54h2.52v21.51Z"/>
    <path id="fin" class="cls-1" d="m48.58,15.05h-4.08c-2.25,0-3.54.68-3.54,2.59v1.29h7.62v2.45h-7.55v12.66h-2.52v-16.06c0-3.4,1.84-5.44,5.58-5.44h4.56l-.07,2.52h0Zm5.04,1.23h-2.52v-3.74h2.52v3.74Zm.07,17.76h-2.52v-15.18h2.52v15.18Zm22.73,0h-2.52v-10.28c0-1.97-1.09-2.38-3.54-2.38h-11.71v12.66h-2.52v-15.18h14.29c4.15,0,5.92,1.5,5.92,4.9l.07,10.28h0Z"/>
  </g>
  <g id="Signet">
    <path id="Element_02" data-name="Element 02" class="cls-1" d="m16.86,19.07c-.68-.68-1.7-.68-2.38,0L1.01,32.61c-.68.61-.68,1.7,0,2.38l13.54,13.54c.68.61,1.7.61,2.38,0l13.54-13.54c.61-.61.61-1.7,0-2.38l-13.61-13.54Zm0,25.86c-.68.61-1.7.61-2.38,0l-9.94-10c-.68-.61-.68-1.7,0-2.38l10-10c.68-.68,1.7-.68,2.38,0l10,10c.61.61.61,1.7,0,2.38l-10.07,10Z"/>
    <path id="Element_01" data-name="Element 01" class="cls-2" d="m30.41,15.05L16.86,1.51c-.68-.68-1.7-.68-2.38,0L1.01,15.05c-.68.68-.68,1.7,0,2.38l6.74,6.74,1.77-1.77-4.97-4.97c-.68-.68-.68-1.7,0-2.38L14.55,5.05c.68-.68,1.7-.68,2.38,0l10,10c.61.68.61,1.7,0,2.38l-10.07,9.94c-.68.61-1.7.61-2.38,0l-1.5-1.5-1.77,1.77,3.27,3.27c.68.61,1.7.61,2.38,0l13.54-13.54c.61-.61.61-1.63,0-2.31Z"/>
  </g>
</svg>